<?xml version="1.0" encoding="utf-8"?>
<!-- Generator: Adobe Illustrator 16.0.4, SVG Export Plug-In . SVG Version: 6.00 Build 0)  -->
<!DOCTYPE svg PUBLIC "-//W3C//DTD SVG 1.1//EN" "http://www.w3.org/Graphics/SVG/1.1/DTD/svg11.dtd">
<svg version="1.1" id="Layer_1" xmlns="http://www.w3.org/2000/svg" xmlns:xlink="http://www.w3.org/1999/xlink" x="0px" y="0px"
	 width="643px" height="433px" viewBox="0 0 643 433" enable-background="new 0 0 643 433" xml:space="preserve">
<g>
	<defs>
		<rect id="SVGID_1_" x="68" y="75" width="544" height="305"/>
	</defs>
	<clipPath id="SVGID_2_">
		<use xlink:href="#SVGID_1_"  overflow="visible"/>
	</clipPath>
	
		<rect x="68" y="75" opacity="0" clip-path="url(#SVGID_2_)" fill-rule="evenodd" clip-rule="evenodd" fill="#FFFFFF" width="544" height="305"/>
	
		<rect x="68" y="75.8" clip-path="url(#SVGID_2_)" fill-rule="evenodd" clip-rule="evenodd" fill="#FFFFFF" width="543.666" height="304.2"/>
</g>
<g>
	<defs>
		<rect id="SVGID_3_" x="96" y="88" width="503" height="279"/>
	</defs>
	<clipPath id="SVGID_4_">
		<use xlink:href="#SVGID_3_"  overflow="visible"/>
	</clipPath>
	
		<rect x="132.438" y="102.71" clip-path="url(#SVGID_4_)" fill-rule="evenodd" clip-rule="evenodd" fill="#3998D4" width="64.754" height="264.29"/>
</g>
<g>
	<defs>
		<rect id="SVGID_5_" x="96" y="88" width="503" height="279"/>
	</defs>
	<clipPath id="SVGID_6_">
		<use xlink:href="#SVGID_5_"  overflow="visible"/>
	</clipPath>
	
		<rect x="232.807" y="204.717" clip-path="url(#SVGID_6_)" fill-rule="evenodd" clip-rule="evenodd" fill="#435264" width="64.754" height="162.283"/>
</g>
<g>
	<defs>
		<rect id="SVGID_7_" x="96" y="88" width="503" height="279"/>
	</defs>
	<clipPath id="SVGID_8_">
		<use xlink:href="#SVGID_7_"  overflow="visible"/>
	</clipPath>
	
		<rect x="333.175" y="264.993" clip-path="url(#SVGID_8_)" fill-rule="evenodd" clip-rule="evenodd" fill="#CC2427" width="64.754" height="102.007"/>
</g>
<g>
	<defs>
		<rect id="SVGID_9_" x="96" y="88" width="503" height="279"/>
	</defs>
	<clipPath id="SVGID_10_">
		<use xlink:href="#SVGID_9_"  overflow="visible"/>
	</clipPath>
	
		<rect x="533.912" y="186.17" clip-path="url(#SVGID_10_)" fill-rule="evenodd" clip-rule="evenodd" fill="#010101" width="64.754" height="180.83"/>
</g>
<g>
	<defs>
		<rect id="SVGID_11_" x="96" y="88" width="503" height="279"/>
	</defs>
	<clipPath id="SVGID_12_">
		<use xlink:href="#SVGID_11_"  overflow="visible"/>
	</clipPath>
	<rect x="434" y="227.8" clip-path="url(#SVGID_12_)" fill="#F29240" width="64" height="139"/>
</g>
<g>
	<defs>
		<rect id="SVGID_13_" x="68" y="75" width="543" height="305"/>
	</defs>
	<clipPath id="SVGID_14_">
		<use xlink:href="#SVGID_13_"  overflow="visible"/>
	</clipPath>
	<g clip-path="url(#SVGID_14_)">
		<text transform="matrix(1 0 0 1 75 370.5996)" fill="#5A5A5A" font-family="'Helvetica'" font-size="9">220</text>
	</g>
</g>
<g>
	<defs>
		<rect id="SVGID_15_" x="68" y="75" width="543" height="305"/>
	</defs>
	<clipPath id="SVGID_16_">
		<use xlink:href="#SVGID_15_"  overflow="visible"/>
	</clipPath>
	<g clip-path="url(#SVGID_16_)">
		<text transform="matrix(1 0 0 1 75 324.2334)" fill="#5A5A5A" font-family="'Helvetica'" font-size="9">230</text>
	</g>
</g>
<g>
	<defs>
		<rect id="SVGID_17_" x="68" y="75" width="543" height="305"/>
	</defs>
	<clipPath id="SVGID_18_">
		<use xlink:href="#SVGID_17_"  overflow="visible"/>
	</clipPath>
	<g clip-path="url(#SVGID_18_)">
		<text transform="matrix(1 0 0 1 75 277.8672)" fill="#5A5A5A" font-family="'Helvetica'" font-size="9">240</text>
	</g>
</g>
<g>
	<defs>
		<rect id="SVGID_19_" x="68" y="75" width="543" height="305"/>
	</defs>
	<clipPath id="SVGID_20_">
		<use xlink:href="#SVGID_19_"  overflow="visible"/>
	</clipPath>
	<g clip-path="url(#SVGID_20_)">
		<text transform="matrix(1 0 0 1 75 231.5)" fill="#5A5A5A" font-family="'Helvetica'" font-size="9">250</text>
	</g>
</g>
<g>
	<defs>
		<rect id="SVGID_21_" x="68" y="75" width="543" height="305"/>
	</defs>
	<clipPath id="SVGID_22_">
		<use xlink:href="#SVGID_21_"  overflow="visible"/>
	</clipPath>
	<g clip-path="url(#SVGID_22_)">
		<text transform="matrix(1 0 0 1 75 185.1338)" fill="#5A5A5A" font-family="'Helvetica'" font-size="9">260</text>
	</g>
</g>
<g>
	<defs>
		<rect id="SVGID_23_" x="68" y="75" width="543" height="305"/>
	</defs>
	<clipPath id="SVGID_24_">
		<use xlink:href="#SVGID_23_"  overflow="visible"/>
	</clipPath>
	<g clip-path="url(#SVGID_24_)">
		<text transform="matrix(1 0 0 1 75 138.7666)" fill="#5A5A5A" font-family="'Helvetica'" font-size="9">270</text>
	</g>
</g>
<g>
	<defs>
		<rect id="SVGID_25_" x="68" y="75" width="543" height="305"/>
	</defs>
	<clipPath id="SVGID_26_">
		<use xlink:href="#SVGID_25_"  overflow="visible"/>
	</clipPath>
	<g clip-path="url(#SVGID_26_)">
		<text transform="matrix(1 0 0 1 75 92.4004)" fill="#5A5A5A" font-family="'Helvetica'" font-size="9">280</text>
	</g>
</g>
<rect x="129" y="40" fill="none" width="467" height="26"/>
<text transform="matrix(1 0 0 1 180.2378 61.4199)" font-family="'HelveticaNeue'" font-size="30">Top 5 Salaried MLB Teams</text>
<rect x="1" y="191" fill="none" width="84" height="67"/>
<text transform="matrix(1 0 0 1 23.0024 203.8516)"><tspan x="0" y="0" font-family="'HelveticaNeue'" font-size="18">Total </tspan><tspan x="1.674" y="21.6" font-family="'HelveticaNeue'" font-size="18">wins</tspan></text>
<rect x="124" y="380" fill="none" width="84" height="72"/>
<text transform="matrix(1 0 0 1 137.3877 390.71)"><tspan x="0" y="0" font-family="'HelveticaNeue'" font-size="15">Dodgers</tspan><tspan x="24.442" y="18" font-family="'HelveticaNeue'" font-size="15">1</tspan></text>
<rect x="227" y="380" fill="none" width="84" height="53"/>
<text transform="matrix(1 0 0 1 240.2451 390.71)"><tspan x="0" y="0" font-family="'HelveticaNeue'" font-size="15">Yankees</tspan><tspan x="24.585" y="18" font-family="'HelveticaNeue'" font-size="15">2</tspan></text>
<rect x="325" y="380" fill="none" width="84" height="71.5"/>
<text transform="matrix(1 0 0 1 338.2529 390.71)"><tspan x="0" y="0" font-family="'HelveticaNeue'" font-size="15">Red Sox</tspan><tspan x="24.577" y="18" font-family="'HelveticaNeue'" font-size="15">3</tspan></text>
<rect x="427" y="380" fill="none" width="84" height="71.5"/>
<text transform="matrix(1 0 0 1 448.4502 390.71)"><tspan x="0" y="0" font-family="'HelveticaNeue'" font-size="15">Tigers</tspan><tspan x="16.38" y="18" font-family="'HelveticaNeue'" font-size="15">4</tspan></text>
<rect x="527" y="380" fill="none" width="84" height="62.5"/>
<text transform="matrix(1 0 0 1 547.333 390.71)"><tspan x="0" y="0" font-family="'HelveticaNeue'" font-size="15">Giants </tspan><tspan x="17.497" y="18" font-family="'HelveticaNeue'" font-size="15">5</tspan></text>
</svg>
