<?xml version="1.0" encoding="utf-8"?>
<!-- Generator: Adobe Illustrator 16.0.4, SVG Export Plug-In . SVG Version: 6.00 Build 0)  -->
<!DOCTYPE svg PUBLIC "-//W3C//DTD SVG 1.1//EN" "http://www.w3.org/Graphics/SVG/1.1/DTD/svg11.dtd">
<svg version="1.1" xmlns="http://www.w3.org/2000/svg" xmlns:xlink="http://www.w3.org/1999/xlink" x="0px" y="0px" width="643px"
	 height="433px" viewBox="0 0 643 433" enable-background="new 0 0 643 433" xml:space="preserve">
<g id="Layer_2">
	<g>
		<defs>
			<rect id="SVGID_1_" x="79.253" y="76" width="548" height="299"/>
		</defs>
		<clipPath id="SVGID_2_">
			<use xlink:href="#SVGID_1_"  overflow="visible"/>
		</clipPath>
		
			<rect x="79.253" y="76" opacity="0" clip-path="url(#SVGID_2_)" fill-rule="evenodd" clip-rule="evenodd" fill="#FFFFFF" width="548" height="299"/>
		
			<rect x="80.253" y="77" clip-path="url(#SVGID_2_)" fill-rule="evenodd" clip-rule="evenodd" fill="#FFFFFF" width="546" height="297"/>
	</g>
	<g>
		<defs>
			<rect id="SVGID_3_" x="108.253" y="90" width="505" height="271"/>
		</defs>
		<clipPath id="SVGID_4_">
			<use xlink:href="#SVGID_3_"  overflow="visible"/>
		</clipPath>
		
			<rect x="144.857" y="162.267" clip-path="url(#SVGID_4_)" fill-rule="evenodd" clip-rule="evenodd" fill="#010101" width="65.055" height="198.733"/>
	</g>
	<g>
		<defs>
			<rect id="SVGID_5_" x="108.253" y="90" width="505" height="271"/>
		</defs>
		<clipPath id="SVGID_6_">
			<use xlink:href="#SVGID_5_"  overflow="visible"/>
		</clipPath>
		
			<rect x="245.692" y="338.417" clip-path="url(#SVGID_6_)" fill-rule="evenodd" clip-rule="evenodd" fill="#26B463" width="65.055" height="22.583"/>
	</g>
	<g>
		<defs>
			<rect id="SVGID_7_" x="108.253" y="90" width="505" height="271"/>
		</defs>
		<clipPath id="SVGID_8_">
			<use xlink:href="#SVGID_7_"  overflow="visible"/>
		</clipPath>
		
			<rect x="346.527" y="338.417" clip-path="url(#SVGID_8_)" fill-rule="evenodd" clip-rule="evenodd" fill="#69AECC" width="65.055" height="22.583"/>
	</g>
	<g>
		<defs>
			<rect id="SVGID_9_" x="108.253" y="90" width="505" height="271"/>
		</defs>
		<clipPath id="SVGID_10_">
			<use xlink:href="#SVGID_9_"  overflow="visible"/>
		</clipPath>
		
			<rect x="447.362" y="329.383" clip-path="url(#SVGID_10_)" fill-rule="evenodd" clip-rule="evenodd" fill="#F89A48" width="65.056" height="31.617"/>
	</g>
	<g>
		<defs>
			<rect id="SVGID_11_" x="108.253" y="90" width="505" height="271"/>
		</defs>
		<clipPath id="SVGID_12_">
			<use xlink:href="#SVGID_11_"  overflow="visible"/>
		</clipPath>
		
			<rect x="548.198" y="270.667" clip-path="url(#SVGID_12_)" fill-rule="evenodd" clip-rule="evenodd" fill="#8C1C1B" width="65.055" height="90.333"/>
	</g>
	<g>
		<defs>
			<rect id="SVGID_13_" x="80.253" y="77" width="546" height="297"/>
		</defs>
		<clipPath id="SVGID_14_">
			<use xlink:href="#SVGID_13_"  overflow="visible"/>
		</clipPath>
		<g clip-path="url(#SVGID_14_)">
			<text transform="matrix(1 0 0 1 87.2529 364.5996)" fill="#5A5A5A" font-family="'Helvetica'" font-size="9">220</text>
		</g>
	</g>
	<g>
		<defs>
			<rect id="SVGID_15_" x="80.253" y="77" width="546" height="297"/>
		</defs>
		<clipPath id="SVGID_16_">
			<use xlink:href="#SVGID_15_"  overflow="visible"/>
		</clipPath>
		<g clip-path="url(#SVGID_16_)">
			<text transform="matrix(1 0 0 1 87.2529 319.4336)" fill="#5A5A5A" font-family="'Helvetica'" font-size="9">230</text>
		</g>
	</g>
	<g>
		<defs>
			<rect id="SVGID_17_" x="80.253" y="77" width="546" height="297"/>
		</defs>
		<clipPath id="SVGID_18_">
			<use xlink:href="#SVGID_17_"  overflow="visible"/>
		</clipPath>
		<g clip-path="url(#SVGID_18_)">
			<text transform="matrix(1 0 0 1 87.2529 274.2666)" fill="#5A5A5A" font-family="'Helvetica'" font-size="9">240</text>
		</g>
	</g>
	<g>
		<defs>
			<rect id="SVGID_19_" x="80.253" y="77" width="546" height="297"/>
		</defs>
		<clipPath id="SVGID_20_">
			<use xlink:href="#SVGID_19_"  overflow="visible"/>
		</clipPath>
		<g clip-path="url(#SVGID_20_)">
			<text transform="matrix(1 0 0 1 87.2529 229.0996)" fill="#5A5A5A" font-family="'Helvetica'" font-size="9">250</text>
		</g>
	</g>
	<g>
		<defs>
			<rect id="SVGID_21_" x="80.253" y="77" width="546" height="297"/>
		</defs>
		<clipPath id="SVGID_22_">
			<use xlink:href="#SVGID_21_"  overflow="visible"/>
		</clipPath>
		<g clip-path="url(#SVGID_22_)">
			<text transform="matrix(1 0 0 1 87.2529 183.9336)" fill="#5A5A5A" font-family="'Helvetica'" font-size="9">260</text>
		</g>
	</g>
	<g>
		<defs>
			<rect id="SVGID_23_" x="80.253" y="77" width="546" height="297"/>
		</defs>
		<clipPath id="SVGID_24_">
			<use xlink:href="#SVGID_23_"  overflow="visible"/>
		</clipPath>
		<g clip-path="url(#SVGID_24_)">
			<text transform="matrix(1 0 0 1 87.2529 138.7666)" fill="#5A5A5A" font-family="'Helvetica'" font-size="9">270</text>
		</g>
	</g>
	<g>
		<defs>
			<rect id="SVGID_25_" x="80.253" y="77" width="546" height="297"/>
		</defs>
		<clipPath id="SVGID_26_">
			<use xlink:href="#SVGID_25_"  overflow="visible"/>
		</clipPath>
		<g clip-path="url(#SVGID_26_)">
			<text transform="matrix(1 0 0 1 87.2529 93.5996)" fill="#5A5A5A" font-family="'Helvetica'" font-size="9">280</text>
		</g>
	</g>
</g>
<g id="Layer_1">
	<text transform="matrix(1 0 0 1 169.2378 51.4199)" fill="#010101" font-family="'HelveticaNeue'" font-size="30">Bottom 5 Salaried MLB Teams</text>
	<text transform="matrix(1 0 0 1 32.0024 193.8516)" fill="#010101" font-family="'HelveticaNeue'" font-size="18">Total </text>
	<text transform="matrix(1 0 0 1 33.6763 215.4512)" fill="#010101" font-family="'HelveticaNeue'" font-size="18">wins</text>
	<text transform="matrix(1 0 0 1 156.3877 380.71)" fill="#010101" font-family="'HelveticaNeue'" font-size="15">Pirates</text>
	<text transform="matrix(1 0 0 1 174.8296 398.71)" fill="#010101" font-family="'HelveticaNeue'" font-size="15">26</text>
	<text transform="matrix(1 0 0 1 251.2451 380.71)" fill="#010101" font-family="'HelveticaNeue'" font-size="15">Athletics</text>
	<text transform="matrix(1 0 0 1 275.8301 398.71)" fill="#010101" font-family="'HelveticaNeue'" font-size="15">27</text>
	<text transform="matrix(1 0 0 1 364.9209 380.71)" fill="#010101" font-family="'HelveticaNeue'" font-size="15">Rays</text>
	<text transform="matrix(1 0 0 1 376.4902 398.71)" fill="#010101" font-family="'HelveticaNeue'" font-size="15">28</text>
	<text transform="matrix(1 0 0 1 457.4502 380.71)" fill="#010101" font-family="'HelveticaNeue'" font-size="15">Marlins</text>
	<text transform="matrix(1 0 0 1 473.8301 398.71)" fill="#010101" font-family="'HelveticaNeue'" font-size="15">29</text>
	<text transform="matrix(1 0 0 1 563.333 380.71)" fill="#010101" font-family="'HelveticaNeue'" font-size="15">Astros</text>
	<text transform="matrix(1 0 0 1 580.8301 398.71)" fill="#010101" font-family="'HelveticaNeue'" font-size="15">30</text>
</g>
</svg>
