<?xml version="1.0" encoding="utf-8"?>
<!-- Generator: Adobe Illustrator 16.0.4, SVG Export Plug-In . SVG Version: 6.00 Build 0)  -->
<!DOCTYPE svg PUBLIC "-//W3C//DTD SVG 1.1//EN" "http://www.w3.org/Graphics/SVG/1.1/DTD/svg11.dtd">
<svg version="1.1" id="Layer_1" xmlns="http://www.w3.org/2000/svg" xmlns:xlink="http://www.w3.org/1999/xlink" x="0px" y="0px"
	 width="1106px" height="862px" viewBox="0 -13 1106 862" enable-background="new 0 -13 1106 862" xml:space="preserve">
<g id="Layer_1_1_">
	<g>
		<g>
			<defs>
				<rect id="SVGID_1_" x="18.458" y="42.96" width="1177.542" height="669.858"/>
			</defs>
			<clipPath id="SVGID_2_">
				<use xlink:href="#SVGID_1_"  overflow="visible"/>
			</clipPath>
			<rect x="74.532" y="98.78" clip-path="url(#SVGID_2_)" fill="#010101" width="112.147" height="614.039"/>
		</g>
	</g>
	<g>
		<g>
			<defs>
				<rect id="SVGID_3_" x="18.458" y="42.96" width="1177.542" height="669.858"/>
			</defs>
			<clipPath id="SVGID_4_">
				<use xlink:href="#SVGID_3_"  overflow="visible"/>
			</clipPath>
			<rect x="242.752" y="322.069" clip-path="url(#SVGID_4_)" fill="#398AC4" width="112.146" height="390.75"/>
		</g>
	</g>
	<g>
		<g>
			<defs>
				<rect id="SVGID_5_" x="18.458" y="42.96" width="1177.542" height="669.858"/>
			</defs>
			<clipPath id="SVGID_6_">
				<use xlink:href="#SVGID_5_"  overflow="visible"/>
			</clipPath>
			<rect x="410.973" y="377.89" clip-path="url(#SVGID_6_)" fill="#ACCEE9" width="112.145" height="334.93"/>
		</g>
	</g>
	<rect x="242.752" y="322.069" fill="#A9AAAC" width="112.146" height="390.75"/>
	
		<image overflow="visible" enable-background="new    " width="175" height="175" xlink:href="8C9C2F54467087EB.png"  transform="matrix(0.7124 0 0 0.3572 747.8281 729.5)">
	</image>
	
		<image overflow="visible" enable-background="new    " width="196" height="196" xlink:href="8C9C2F54467087E9.png"  transform="matrix(0.5509 0 0 0.4429 921.1367 717.1992)">
	</image>
	
		<image overflow="visible" enable-background="new    " width="640" height="228" xlink:href="8C9C2F54467087EF.jpeg"  transform="matrix(0.2654 0 0 0.2654 214.5967 731.5)">
	</image>
	<rect x="747.828" y="433.711" fill="#273878" width="112.146" height="279.107"/>
	<rect x="916.051" y="433.711" fill="#1366AE" width="112.146" height="279.107"/>
	
		<image overflow="visible" enable-background="new    " width="160" height="81" xlink:href="8C9C2F54467087E9.png"  transform="matrix(0.7395 0 0 0.7395 580.5 725.75)">
	</image>
</g>
<g id="Layer_4">
	
		<image overflow="visible" enable-background="new    " width="574" height="257" xlink:href="8C9C2F54467087EB.gif"  transform="matrix(0.2149 0 0 0.2432 409.8896 729.5)">
	</image>
	<rect x="579.196" y="374.89" fill="#CD1F3E" width="112.144" height="337.637"/>
	<rect x="75" y="31.96" fill="none" width="110" height="56"/>
	<text transform="matrix(1 0 0 1 104.4404 73.4785)" font-family="'MyriadPro-BoldCond'" font-size="60">11</text>
	<rect x="242.752" y="259" fill="none" width="112.146" height="56"/>
	<text transform="matrix(1 0 0 1 286.0454 300.5195)" font-family="'MyriadPro-BoldCond'" font-size="60">7</text>
	<rect x="415.489" y="259" fill="none" width="112.146" height="56"/>
	<text transform="matrix(1 0 0 1 458.7827 300.5195)" font-family="'MyriadPro-BoldCond'" font-size="60">7</text>
	<rect x="579.194" y="304" fill="none" width="112.146" height="56"/>
	<text transform="matrix(1 0 0 1 622.4883 345.5186)" font-family="'MyriadPro-BoldCond'" font-size="60">6</text>
	<rect x="747.828" y="373" fill="none" width="112.146" height="56"/>
	<text transform="matrix(1 0 0 1 791.1211 414.5186)" font-family="'MyriadPro-BoldCond'" font-size="60">5</text>
	<text transform="matrix(1 0 0 1 290.0449 73.4785)" font-family="'MyriadPro-BoldCond'" font-size="70">Which conference pulls </text>
	<text transform="matrix(1 0 0 1 384.4531 151.4785)" font-family="'MyriadPro-BoldCond'" font-size="70">off the most upsets?</text>
	<rect x="410.973" y="322.069" fill="#1C94D2" width="112.145" height="390.75"/>
	<rect x="916.051" y="373" fill="none" width="112.146" height="56"/>
	<text transform="matrix(1 0 0 1 959.3438 414.5186)" font-family="'MyriadPro-BoldCond'" font-size="60">5</text>
</g>
<g id="Layer_2">
	
		<image overflow="visible" enable-background="new    " width="1000" height="321" xlink:href="8C9C2F54467087E9.png"  transform="matrix(0.1464 0 0 0.1464 52.3994 739.001)">
	</image>
</g>
</svg>
